<?xml version="1.0" standalone="no"?>
<!DOCTYPE svg PUBLIC "-//W3C//DTD SVG 20010904//EN"
 "http://www.w3.org/TR/2001/REC-SVG-20010904/DTD/svg10.dtd">
<svg version="1.0" xmlns="http://www.w3.org/2000/svg"
 width="1024.000000pt" height="564.000000pt" viewBox="0 0 1024.000000 564.000000"
 preserveAspectRatio="xMidYMid meet">

<g transform="translate(0.000000,564.000000) scale(0.100000,-0.100000)"
fill="#000000" stroke="none">
<path d="M4518 5400 c-197 -36 -531 -170 -711 -286 -103 -67 -146 -117 -209
-245 -91 -183 -201 -311 -335 -386 -32 -18 -53 -33 -48 -33 6 0 43 19 84 41
66 36 77 39 98 28 22 -12 22 -13 6 -32 -18 -20 -18 -20 11 -1 l29 18 -7 -28
c-5 -19 -3 -26 5 -21 8 6 8 2 0 -13 -14 -27 -15 -54 -1 -32 11 16 10 21 14
-68 1 -24 8 -47 15 -52 11 -6 11 -9 0 -13 -12 -4 -11 -7 1 -16 12 -9 13 -12 1
-20 -11 -7 -11 -9 0 -13 10 -3 11 -9 4 -19 -6 -8 -9 -25 -8 -39 1 -14 3 -46 4
-72 1 -26 6 -45 10 -42 4 2 7 -9 7 -25 l-1 -29 -31 18 c-37 21 -93 33 -100 21
-3 -5 13 -11 37 -14 80 -11 139 -103 123 -192 -6 -32 -57 -97 -83 -106 -9 -3
-8 -20 3 -68 45 -194 125 -611 135 -706 6 -63 12 -292 13 -533 l1 -423 118
241 118 241 -11 162 c-6 89 -28 266 -48 392 -31 202 -36 253 -36 415 -1 202 6
252 69 470 38 132 161 452 232 603 l46 98 -29 30 c-24 25 -29 39 -29 82 0 64
22 98 83 128 70 34 141 13 182 -54 53 -86 -6 -205 -103 -209 -35 -1 -36 -3
-76 -92 -75 -172 -190 -471 -226 -591 -20 -66 -45 -174 -57 -240 -27 -161 -21
-358 21 -612 16 -100 32 -215 36 -255 3 -40 8 -97 11 -127 l6 -54 78 161 78
161 -1 103 c0 88 3 115 27 183 31 93 168 343 269 494 57 85 68 107 58 120 -22
31 -32 65 -26 92 9 39 51 81 78 77 21 -3 22 -8 22 -80 0 -42 3 -79 6 -82 5 -6
163 327 475 1002 87 188 161 339 165 335 3 -5 40 -80 82 -168 41 -88 178 -376
305 -640 126 -264 314 -658 417 -875 103 -217 268 -564 367 -770 99 -206 245
-512 325 -680 80 -168 215 -449 299 -624 85 -176 154 -321 154 -323 0 -12 -79
11 -386 116 -555 189 -504 167 -537 229 -16 29 -179 369 -362 755 -622 1312
-652 1372 -670 1372 -13 0 -45 -60 -125 -230 -58 -126 -132 -281 -164 -344
-31 -63 -54 -121 -51 -128 4 -12 46 -14 250 -12 204 2 248 0 259 -12 7 -8 55
-102 106 -209 51 -107 122 -253 157 -324 35 -70 63 -130 63 -132 0 -2 -261 -4
-580 -4 l-580 0 -14 -22 c-7 -13 -76 -153 -152 -311 -77 -159 -157 -326 -179
-370 l-40 -82 -230 -77 c-431 -145 -647 -222 -636 -226 7 -2 46 8 87 23 41 15
77 25 80 22 3 -3 3 -14 0 -25 -8 -24 -41 -64 -48 -57 -2 3 -5 -1 -5 -9 0 -8 6
-12 14 -9 9 4 11 0 7 -11 -3 -9 -1 -16 5 -16 6 0 16 -11 21 -25 5 -14 14 -25
20 -25 5 0 10 -7 10 -15 0 -8 -4 -15 -10 -15 -5 0 -10 -5 -10 -11 0 -5 4 -8 8
-5 4 2 8 -4 8 -15 0 -17 -4 -16 -30 9 -76 68 -79 73 -59 88 17 13 17 13 -2 14
-11 1 -14 4 -7 7 14 5 17 33 3 33 -6 0 -13 -5 -16 -11 -5 -7 -14 -4 -27 8 -21
18 -21 18 -8 -7 11 -21 6 -19 -36 15 l-49 40 33 -40 c19 -22 58 -62 87 -90 29
-27 94 -90 146 -139 240 -229 470 -376 754 -481 168 -62 270 -86 390 -92 121
-6 144 -1 340 82 75 32 105 39 180 43 112 6 183 -11 314 -75 93 -45 100 -47
202 -51 92 -4 121 0 232 27 287 69 542 191 786 374 104 78 437 399 570 551
205 232 350 488 435 768 49 163 68 261 68 363 0 93 -5 114 -75 296 -35 90 -48
196 -36 289 11 88 20 119 66 220 58 125 61 228 12 415 -68 264 -254 629 -390
765 -54 54 -110 86 -199 115 -217 70 -368 225 -455 468 -35 99 -155 197 -355
290 -280 131 -507 199 -665 200 -94 1 -105 -1 -190 -37 -213 -90 -290 -106
-385 -81 -35 9 -93 30 -129 47 -148 68 -262 89 -373 68z m-1075 -837 c-17 -17
-23 -28 -15 -31 20 -6 13 -21 -8 -15 -11 3 -18 9 -15 13 3 5 0 10 -6 12 -6 2
6 23 28 46 33 37 38 40 41 21 2 -12 -7 -30 -25 -46z m12 -13 c3 -5 1 -10 -4
-10 -6 0 -11 5 -11 10 0 6 2 10 4 10 3 0 8 -4 11 -10z m84 -794 c-5 -6 -9 -15
-9 -20 0 -6 5 -4 10 4 9 13 10 13 10 0 0 -8 -9 -21 -21 -28 -17 -11 -20 -11
-13 0 4 7 -2 5 -14 -5 -11 -11 -26 -16 -31 -12 -6 3 -11 -1 -11 -10 0 -9 -4
-13 -10 -10 -5 3 -10 15 -10 26 0 11 5 17 10 14 6 -3 10 -1 10 6 0 7 14 28 32
46 29 30 32 31 44 15 8 -10 9 -21 3 -26z m-72 -118 c-3 -8 -6 -5 -6 6 -1 11 2
17 5 13 3 -3 4 -12 1 -19z m52 -60 c1 -23 8 -49 15 -58 20 -24 17 -58 -6 -65
-14 -5 -18 -13 -14 -27 3 -13 1 -17 -4 -12 -10 10 -40 143 -40 179 0 14 7 25
18 28 26 5 28 2 31 -45z m56 -408 c2 -16 -1 -30 -6 -30 -5 0 -9 6 -9 14 0 7
-3 29 -6 47 -4 28 -3 31 6 17 6 -10 13 -31 15 -48z m2525 -1975 l0 -86 22 20
c50 47 140 31 178 -31 27 -44 27 -122 0 -166 -39 -64 -110 -88 -170 -57 -24
12 -29 12 -33 0 -4 -10 -14 -11 -34 -6 l-28 8 0 194 c0 107 1 197 3 202 2 4
16 7 33 7 l29 0 0 -85z m-1981 38 c11 -10 43 -73 71 -141 28 -68 59 -141 70
-162 27 -53 25 -60 -14 -60 -31 0 -36 4 -52 45 l-17 45 -88 0 -88 0 -12 -40
c-7 -22 -18 -45 -25 -51 -17 -14 -60 -7 -56 10 7 31 147 357 156 363 17 12 32
9 55 -9z m1279 -70 l3 -73 94 0 95 0 0 75 0 75 30 0 30 0 0 -185 0 -185 -30 0
-30 0 0 80 0 80 -95 0 -94 0 -3 -77 -3 -78 -29 0 -29 0 -2 175 c-1 96 0 179 2
183 3 5 17 7 31 5 26 -3 27 -5 30 -75z m-198 22 c0 -22 4 -25 35 -25 31 0 35
-3 35 -25 0 -22 -4 -25 -35 -25 l-35 0 0 -79 c0 -44 3 -86 6 -95 7 -18 45 -21
61 -5 8 8 13 2 18 -21 4 -17 5 -34 2 -36 -3 -3 -28 -5 -57 -6 -81 0 -90 13
-90 138 0 99 -1 103 -22 106 -15 2 -24 11 -26 26 -3 18 1 22 22 22 21 0 26 5
26 25 0 21 5 25 30 25 25 0 30 -4 30 -25z m-725 -39 c38 -16 41 -23 22 -50
-12 -16 -15 -16 -42 -2 -38 20 -79 20 -95 1 -18 -22 -4 -33 72 -59 48 -16 66
-28 80 -52 41 -70 -25 -132 -130 -121 -60 6 -92 28 -92 63 0 33 37 42 56 15
12 -16 26 -21 58 -21 87 0 79 48 -11 69 -57 14 -79 29 -91 62 -30 79 74 136
173 95z m250 0 c35 -15 42 -29 26 -54 -7 -12 -14 -11 -40 3 -44 22 -95 17 -99
-11 -3 -22 -1 -23 92 -55 53 -19 83 -60 70 -95 -22 -64 -127 -90 -201 -51 -37
20 -39 25 -19 53 14 19 15 19 46 0 55 -32 129 -20 117 19 -2 6 -32 20 -68 33
-72 25 -99 51 -99 92 0 65 94 100 175 66z m284 -4 c47 -23 73 -62 75 -109 l1
-38 -112 -3 -112 -3 10 -23 c20 -43 87 -60 125 -31 29 22 64 19 64 -5 0 -50
-125 -79 -191 -44 -36 18 -68 82 -69 134 0 102 116 170 209 122z m771 -84 c0
-113 11 -138 60 -138 50 0 69 35 76 138 l7 92 28 0 29 0 0 -140 0 -140 -30 0
c-24 0 -30 4 -30 21 0 20 -1 20 -31 -5 -46 -39 -122 -29 -154 21 -19 29 -32
159 -21 217 6 32 10 36 36 36 l30 0 0 -102z"/>
<path d="M6120 1075 c-19 -20 -22 -31 -17 -72 8 -76 65 -106 119 -63 31 23 41
68 27 110 -20 55 -88 69 -129 25z"/>
<path d="M4082 1153 c-10 -17 -52 -124 -52 -130 0 -2 27 -3 60 -3 33 0 60 2
60 4 0 6 -51 141 -55 144 -2 2 -8 -5 -13 -15z"/>
<path d="M4897 1090 c-49 -38 -36 -50 53 -50 75 0 80 1 71 18 -26 49 -83 64
-124 32z"/>
<path d="M3318 4033 c7 -3 16 -2 19 1 4 3 -2 6 -13 5 -11 0 -14 -3 -6 -6z"/>
<path d="M3266 4015 c-11 -8 -16 -15 -10 -15 5 0 18 7 28 15 11 8 16 15 10 15
-5 0 -18 -7 -28 -15z"/>
<path d="M3192 3855 c0 -16 2 -22 5 -12 2 9 2 23 0 30 -3 6 -5 -1 -5 -18z"/>
<path d="M3302 3715 c32 -18 36 -30 78 -255 17 -91 37 -194 44 -230 21 -94 35
-173 34 -190 0 -8 3 -35 6 -60 4 -25 9 -146 12 -270 2 -124 6 -239 7 -257 2
-17 -1 -29 -5 -27 -4 3 -8 -10 -8 -30 0 -19 5 -36 11 -38 8 -3 6 -10 -5 -21
-10 -9 -14 -17 -9 -17 4 0 9 -11 9 -25 1 -14 -3 -25 -8 -25 -6 0 -4 -8 3 -17
9 -10 9 -14 2 -10 -19 12 -30 -23 -29 -91 1 -48 5 -67 19 -76 10 -8 18 -30 20
-55 3 -34 -1 -44 -20 -56 -13 -9 -23 -22 -23 -30 0 -8 -7 -15 -15 -15 -8 0
-15 -5 -15 -11 0 -5 6 -7 13 -3 10 6 10 4 0 -7 -14 -14 -17 -51 -6 -63 14 -14
11 -36 -5 -36 -10 0 -13 -3 -7 -8 6 -4 15 -22 22 -40 10 -29 9 -34 -8 -45 -10
-6 -19 -21 -19 -33 0 -12 -13 -35 -30 -52 -20 -22 -30 -42 -30 -63 0 -40 -48
-149 -66 -149 -10 0 -14 -13 -14 -41 0 -38 12 -17 126 212 l127 254 -6 485
c-4 267 -11 539 -18 605 -9 102 -138 779 -150 789 -2 2 -17 6 -34 10 l-30 6
27 -15z"/>
<path d="M4347 3608 c-123 -212 -226 -436 -215 -469 2 -6 32 51 67 127 35 77
86 183 113 238 51 102 70 146 64 146 -2 0 -15 -19 -29 -42z"/>
<path d="M3181 2767 c-13 -21 -12 -21 5 -5 10 10 16 20 13 22 -3 3 -11 -5 -18
-17z"/>
<path d="M3091 2684 c0 -11 3 -14 6 -6 3 7 2 16 -1 19 -3 4 -6 -2 -5 -13z"/>
<path d="M3206 2070 c8 -43 14 -51 14 -19 0 13 -5 31 -10 39 -7 11 -8 5 -4
-20z"/>
<path d="M3222 1980 c0 -14 4 -38 8 -55 l8 -30 0 30 c0 17 -4 41 -8 55 l-8 25
0 -25z"/>
<path d="M3252 1705 c0 -27 3 -75 8 -105 l7 -55 1 50 c0 28 -3 75 -8 105 l-7
55 -1 -50z"/>
<path d="M3261 1494 c0 -11 3 -14 6 -6 3 7 2 16 -1 19 -3 4 -6 -2 -5 -13z"/>
<path d="M3173 1330 c0 -25 2 -35 4 -22 2 12 2 32 0 45 -2 12 -4 2 -4 -23z"/>
</g>
</svg>
